<?xml version="1.0" encoding="utf-8" standalone="yes"?> <svg width="1000" height="1000" viewBox="-1 -1 63 63" xmlns="http://www.w3.org/2000/svg" xmlns:xlink="http://www.w3.org/1999/xlink" shape-rendering="crispEdges" id="qr code"><rect id="qr background" fill-opacity="1" fill="rgb(255, 255, 255)" x="-1" y="-1" width="63" height="63"></rect><path fill-opacity="1" fill="rgb(0, 0, 0)" id="qr dark pixels" fill-rule="evenodd" d="M 9 0 L 10 0 L 10 1 L 11 1 L 11 3 L 10 3 L 10 2 L 8 2 L 8 1 L 9 1 z M 12 0 L 14 0 L 14 1 L 12 1 z M 15 0 L 16 0 L 16 1 L 15 1 z M 18 0 L 19 0 L 19 1 L 20 1 L 20 2 L 19 2 L 19 3 L 20 3 L 20 5 L 21 5 L 21 7 L 20 7 L 20 6 L 19 6 L 19 5 L 18 5 L 18 6 L 17 6 L 17 7 L 16 7 L 16 5 L 15 5 L 15 7 L 16 7 L 16 8 L 13 8 L 13 9 L 16 9 L 16 8 L 18 8 L 18 9 L 17 9 L 17 12 L 15 12 L 15 13 L 14 13 L 14 12 L 13 12 L 13 11 L 15 11 L 15 10 L 10 10 L 10 9 L 6 9 L 6 8 L 9 8 L 9 7 L 10 7 L 10 8 L 11 8 L 11 7 L 12 7 L 12 6 L 13 6 L 13 7 L 14 7 L 14 6 L 13 6 L 13 5 L 14 5 L 14 3 L 15 3 L 15 4 L 17 4 L 17 1 L 18 1 z M 20 0 L 22 0 L 22 1 L 23 1 L 23 2 L 24 2 L 24 5 L 26 5 L 26 6 L 25 6 L 25 7 L 24 7 L 24 6 L 23 6 L 23 5 L 22 5 L 22 4 L 23 4 L 23 3 L 21 3 L 21 1 L 20 1 z M 23 0 L 24 0 L 24 1 L 23 1 z M 27 0 L 29 0 L 29 1 L 27 1 z M 30 0 L 31 0 L 31 1 L 34 1 L 34 0 L 35 0 L 35 2 L 34 2 L 34 5 L 33 5 L 33 2 L 31 2 L 31 3 L 30 3 L 30 2 L 29 2 L 29 1 L 30 1 z M 36 0 L 37 0 L 37 1 L 36 1 z M 38 0 L 41 0 L 41 2 L 42 2 L 42 3 L 43 3 L 43 4 L 42 4 L 42 5 L 41 5 L 41 7 L 42 7 L 42 5 L 44 5 L 44 6 L 43 6 L 43 7 L 44 7 L 44 6 L 45 6 L 45 7 L 46 7 L 46 9 L 48 9 L 48 8 L 49 8 L 49 9 L 50 9 L 50 10 L 48 10 L 48 12 L 47 12 L 47 11 L 45 11 L 45 9 L 44 9 L 44 10 L 43 10 L 43 11 L 44 11 L 44 13 L 42 13 L 42 12 L 40 12 L 40 11 L 42 11 L 42 10 L 40 10 L 40 11 L 38 11 L 38 10 L 39 10 L 39 9 L 38 9 L 38 8 L 39 8 L 39 7 L 40 7 L 40 5 L 38 5 L 38 6 L 37 6 L 37 4 L 41 4 L 41 3 L 38 3 L 38 2 L 39 2 L 39 1 L 38 1 zM 40 8 L 41 8 L 41 9 L 40 9 z M 42 8 L 43 8 L 43 9 L 42 9 z M 42 0 L 44 0 L 44 1 L 45 1 L 45 2 L 44 2 L 44 3 L 43 3 L 43 2 L 42 2 z M 47 0 L 48 0 L 48 1 L 47 1 z M 51 0 L 53 0 L 53 4 L 52 4 L 52 3 L 51 3 L 51 4 L 52 4 L 52 5 L 51 5 L 51 7 L 52 7 L 52 6 L 53 6 L 53 8 L 51 8 L 51 9 L 50 9 L 50 8 L 49 8 L 49 7 L 50 7 L 50 6 L 49 6 L 49 5 L 50 5 L 50 3 L 46 3 L 46 6 L 45 6 L 45 5 L 44 5 L 44 3 L 45 3 L 45 2 L 49 2 L 49 1 L 50 1 L 50 2 L 51 2 z M 14 1 L 15 1 L 15 2 L 14 2 z M 26 1 L 27 1 L 27 2 L 26 2 z M 37 1 L 38 1 L 38 2 L 37 2 z M 13 2 L 14 2 L 14 3 L 13 3 z M 15 2 L 16 2 L 16 3 L 15 3 z M 27 2 L 28 2 L 28 3 L 29 3 L 29 4 L 26 4 L 26 3 L 27 3 z M 36 2 L 37 2 L 37 4 L 36 4 z M 8 3 L 9 3 L 9 4 L 8 4 z M 31 3 L 32 3 L 32 4 L 31 4 z M 11 4 L 13 4 L 13 5 L 11 5 z M 47 4 L 49 4 L 49 5 L 48 5 L 48 6 L 47 6 z M 8 5 L 11 5 L 11 7 L 10 7 L 10 6 L 9 6 L 9 7 L 8 7 z M 27 5 L 28 5 L 28 6 L 27 6 z M 34 5 L 36 5 L 36 6 L 35 6 L 35 8 L 34 8 z M 18 6 L 19 6 L 19 7 L 18 7 z M 22 6 L 23 6 L 23 7 L 22 7 z M 26 6 L 27 6 L 27 7 L 26 7 z M 36 6 L 37 6 L 37 7 L 36 7 z M 38 6 L 39 6 L 39 7 L 38 7 z M 46 6 L 47 6 L 47 7 L 46 7 z M 48 6 L 49 6 L 49 7 L 48 7 z M 19 7 L 20 7 L 20 9 L 19 9 z M 0 8 L 5 8 L 5 9 L 4 9 L 4 10 L 5 10 L 5 9 L 6 9 L 6 10 L 10 10 L 10 11 L 6 11 L 6 12 L 5 12 L 5 11 L 4 11 L 4 13 L 0 13 L 0 11 L 1 11 L 1 10 L 3 10 L 3 9 L 0 9 z M 21 8 L 24 8 L 24 9 L 21 9 z M 25 8 L 26 8 L 26 9 L 25 9 z M 33 8 L 34 8 L 34 9 L 33 9 z M 35 8 L 36 8 L 36 9 L 35 9 z M 53 8 L 54 8 L 54 9 L 55 9 L 55 10 L 56 10 L 56 11 L 57 11 L 57 10 L 58 10 L 58 9 L 59 9 L 59 12 L 57 12 L 57 13 L 56 13 L 56 12 L 55 12 L 55 11 L 54 11 L 54 12 L 53 12 L 53 13 L 52 13 L 52 12 L 51 12 L 51 11 L 52 11 L 52 10 L 53 10 z M 55 8 L 56 8 L 56 9 L 55 9 z M 57 8 L 58 8 L 58 9 L 57 9 z M 59 8 L 60 8 L 60 9 L 59 9 z M 18 9 L 19 9 L 19 10 L 18 10 z M 26 9 L 30 9 L 30 10 L 28 10 L 28 11 L 29 11 L 29 12 L 28 12 L 28 14 L 30 14 L 30 16 L 31 16 L 31 17 L 32 17 L 32 16 L 33 16 L 33 17 L 34 17 L 34 16 L 35 16 L 35 19 L 34 19 L 34 18 L 33 18 L 33 19 L 31 19 L 31 20 L 29 20 L 29 19 L 30 19 L 30 17 L 29 17 L 29 19 L 28 19 L 28 17 L 26 17 L 26 16 L 27 16 L 27 13 L 26 13 L 26 12 L 25 12 L 25 11 L 26 11 zM 28 15 L 29 15 L 29 16 L 28 16 z M 31 9 L 33 9 L 33 10 L 34 10 L 34 11 L 33 11 L 33 12 L 34 12 L 34 13 L 33 13 L 33 15 L 32 15 L 32 13 L 30 13 L 30 11 L 32 11 L 32 10 L 31 10 z M 34 9 L 35 9 L 35 10 L 34 10 z M 56 9 L 57 9 L 57 10 L 56 10 z M 19 10 L 20 10 L 20 11 L 19 11 z M 22 10 L 25 10 L 25 11 L 24 11 L 24 12 L 23 12 L 23 13 L 22 13 z M 35 10 L 36 10 L 36 12 L 37 12 L 37 13 L 36 13 L 36 14 L 37 14 L 37 16 L 36 16 L 36 15 L 34 15 L 34 13 L 35 13 L 35 12 L 34 12 L 34 11 L 35 11 z M 60 10 L 61 10 L 61 13 L 60 13 L 60 14 L 59 14 L 59 12 L 60 12 z M 18 11 L 19 11 L 19 12 L 18 12 z M 37 11 L 38 11 L 38 12 L 37 12 z M 6 12 L 7 12 L 7 13 L 6 13 z M 10 12 L 11 12 L 11 13 L 10 13 z M 20 12 L 21 12 L 21 13 L 20 13 z M 38 12 L 39 12 L 39 13 L 38 13 z M 45 12 L 47 12 L 47 14 L 48 14 L 48 12 L 50 12 L 50 15 L 49 15 L 49 16 L 48 16 L 48 15 L 42 15 L 42 16 L 41 16 L 41 19 L 42 19 L 42 16 L 43 16 L 43 17 L 45 17 L 45 16 L 47 16 L 47 17 L 46 17 L 46 21 L 45 21 L 45 18 L 43 18 L 43 20 L 42 20 L 42 21 L 41 21 L 41 23 L 39 23 L 39 22 L 38 22 L 38 23 L 39 23 L 39 24 L 37 24 L 37 23 L 36 23 L 36 22 L 37 22 L 37 21 L 35 21 L 35 19 L 36 19 L 36 20 L 37 20 L 37 19 L 38 19 L 38 18 L 39 18 L 39 17 L 40 17 L 40 16 L 39 16 L 39 17 L 38 17 L 38 15 L 39 15 L 39 13 L 41 13 L 41 14 L 44 14 L 44 13 L 45 13 L 45 14 L 46 14 L 46 13 L 45 13 zM 39 19 L 40 19 L 40 20 L 39 20 z M 38 20 L 39 20 L 39 21 L 38 21 z M 4 13 L 5 13 L 5 16 L 2 16 L 2 15 L 0 15 L 0 14 L 4 14 z M 8 13 L 9 13 L 9 16 L 8 16 L 8 15 L 6 15 L 6 14 L 8 14 z M 11 13 L 14 13 L 14 14 L 15 14 L 15 13 L 16 13 L 16 17 L 13 17 L 13 16 L 14 16 L 14 15 L 13 15 L 13 14 L 12 14 L 12 15 L 11 15 z M 18 13 L 20 13 L 20 14 L 19 14 L 19 15 L 20 15 L 20 16 L 22 16 L 22 17 L 21 17 L 21 18 L 19 18 L 19 19 L 18 19 L 18 18 L 17 18 L 17 20 L 16 20 L 16 19 L 15 19 L 15 18 L 16 18 L 16 17 L 18 17 L 18 16 L 17 16 L 17 14 L 18 14 z M 21 13 L 22 13 L 22 15 L 20 15 L 20 14 L 21 14 z M 51 13 L 52 13 L 52 17 L 53 17 L 53 16 L 54 16 L 54 17 L 55 17 L 55 16 L 57 16 L 57 15 L 55 15 L 55 16 L 54 16 L 54 14 L 53 14 L 53 13 L 56 13 L 56 14 L 57 14 L 57 13 L 58 13 L 58 15 L 59 15 L 59 16 L 58 16 L 58 17 L 57 17 L 57 18 L 56 18 L 56 19 L 53 19 L 53 18 L 51 18 L 51 17 L 50 17 L 50 18 L 48 18 L 48 17 L 49 17 L 49 16 L 50 16 L 50 15 L 51 15 z M 60 14 L 61 14 L 61 15 L 60 15 z M 10 15 L 11 15 L 11 16 L 10 16 z M 25 15 L 26 15 L 26 16 L 25 16 z M 33 15 L 34 15 L 34 16 L 33 16 z M 5 16 L 8 16 L 8 17 L 6 17 L 6 18 L 7 18 L 7 19 L 4 19 L 4 17 L 5 17 z M 23 16 L 25 16 L 25 17 L 26 17 L 26 18 L 25 18 L 25 19 L 26 19 L 26 20 L 25 20 L 25 21 L 24 21 L 24 25 L 22 25 L 22 24 L 23 24 L 23 21 L 22 21 L 22 20 L 24 20 L 24 19 L 22 19 L 22 20 L 19 20 L 19 19 L 21 19 L 21 18 L 24 18 L 24 17 L 23 17 z M 59 16 L 60 16 L 60 17 L 59 17 z M 0 17 L 1 17 L 1 18 L 0 18 z M 2 17 L 3 17 L 3 18 L 2 18 z M 8 17 L 10 17 L 10 18 L 8 18 z M 11 17 L 12 17 L 12 18 L 11 18 z M 36 17 L 38 17 L 38 18 L 37 18 L 37 19 L 36 19 z M 1 18 L 2 18 L 2 19 L 1 19 z M 26 18 L 27 18 L 27 19 L 26 19 z M 57 18 L 59 18 L 59 19 L 58 19 L 58 20 L 60 20 L 60 21 L 61 21 L 61 22 L 60 22 L 60 23 L 61 23 L 61 25 L 60 25 L 60 24 L 55 24 L 55 21 L 57 21 L 57 22 L 56 22 L 56 23 L 57 23 L 57 22 L 58 22 L 58 23 L 59 23 L 59 22 L 58 22 L 58 21 L 57 21 L 57 20 L 56 20 L 56 19 L 57 19 z M 60 18 L 61 18 L 61 20 L 60 20 z M 0 19 L 1 19 L 1 20 L 2 20 L 2 22 L 1 22 L 1 21 L 0 21 z M 8 19 L 9 19 L 9 21 L 8 21 L 8 23 L 9 23 L 9 24 L 10 24 L 10 27 L 9 27 L 9 28 L 8 28 L 8 27 L 5 27 L 5 26 L 7 26 L 7 25 L 8 25 L 8 26 L 9 26 L 9 25 L 8 25 L 8 24 L 7 24 L 7 23 L 6 23 L 6 22 L 7 22 L 7 21 L 5 21 L 5 22 L 4 22 L 4 23 L 3 23 L 3 24 L 5 24 L 5 26 L 4 26 L 4 27 L 5 27 L 5 28 L 3 28 L 3 27 L 2 27 L 2 28 L 3 28 L 3 29 L 2 29 L 2 30 L 0 30 L 0 28 L 1 28 L 1 24 L 2 24 L 2 22 L 3 22 L 3 21 L 4 21 L 4 20 L 8 20 zM 2 25 L 3 25 L 3 26 L 2 26 z M 27 19 L 28 19 L 28 21 L 27 21 z M 33 19 L 34 19 L 34 20 L 33 20 z M 48 19 L 49 19 L 49 20 L 48 20 z M 51 19 L 52 19 L 52 20 L 51 20 z M 10 20 L 12 20 L 12 21 L 15 21 L 15 20 L 16 20 L 16 21 L 17 21 L 17 20 L 18 20 L 18 22 L 17 22 L 17 23 L 18 23 L 18 22 L 19 22 L 19 23 L 20 23 L 20 21 L 21 21 L 21 23 L 22 23 L 22 24 L 19 24 L 19 25 L 22 25 L 22 26 L 21 26 L 21 28 L 20 28 L 20 29 L 22 29 L 22 30 L 21 30 L 21 31 L 22 31 L 22 30 L 23 30 L 23 28 L 27 28 L 27 26 L 28 26 L 28 33 L 29 33 L 29 35 L 28 35 L 28 36 L 26 36 L 26 35 L 27 35 L 27 32 L 26 32 L 26 30 L 27 30 L 27 29 L 26 29 L 26 30 L 25 30 L 25 33 L 24 33 L 24 32 L 23 32 L 23 33 L 22 33 L 22 32 L 20 32 L 20 31 L 19 31 L 19 28 L 17 28 L 17 29 L 18 29 L 18 32 L 15 32 L 15 31 L 14 31 L 14 29 L 15 29 L 15 30 L 16 30 L 16 28 L 15 28 L 15 27 L 16 27 L 16 26 L 17 26 L 17 27 L 18 27 L 18 26 L 17 26 L 17 25 L 18 25 L 18 24 L 17 24 L 17 25 L 16 25 L 16 24 L 15 24 L 15 22 L 14 22 L 14 24 L 13 24 L 13 22 L 11 22 L 11 21 L 10 21 zM 19 26 L 20 26 L 20 27 L 19 27 z M 31 20 L 33 20 L 33 21 L 31 21 z M 43 20 L 44 20 L 44 23 L 45 23 L 45 24 L 43 24 z M 47 20 L 48 20 L 48 21 L 47 21 z M 49 20 L 51 20 L 51 22 L 50 22 L 50 21 L 49 21 z M 52 20 L 55 20 L 55 21 L 52 21 z M 25 21 L 26 21 L 26 22 L 25 22 z M 34 21 L 35 21 L 35 23 L 33 23 L 33 22 L 34 22 z M 46 21 L 47 21 L 47 22 L 48 22 L 48 24 L 47 24 L 47 23 L 45 23 L 45 22 L 46 22 z M 48 21 L 49 21 L 49 22 L 48 22 z M 27 22 L 29 22 L 29 24 L 28 24 L 28 25 L 25 25 L 25 23 L 27 23 z M 49 22 L 50 22 L 50 23 L 51 23 L 51 22 L 52 22 L 52 24 L 53 24 L 53 23 L 54 23 L 54 24 L 55 24 L 55 25 L 56 25 L 56 26 L 55 26 L 55 27 L 54 27 L 54 25 L 51 25 L 51 24 L 49 24 z M 5 23 L 6 23 L 6 24 L 5 24 z M 10 23 L 11 23 L 11 24 L 10 24 z M 30 23 L 31 23 L 31 25 L 30 25 z M 32 23 L 33 23 L 33 24 L 32 24 z M 41 23 L 42 23 L 42 24 L 43 24 L 43 25 L 41 25 z M 6 24 L 7 24 L 7 25 L 6 25 z M 14 24 L 15 24 L 15 27 L 14 27 L 14 29 L 13 29 L 13 27 L 12 27 L 12 26 L 14 26 z M 34 24 L 37 24 L 37 25 L 38 25 L 38 27 L 41 27 L 41 28 L 40 28 L 40 29 L 41 29 L 41 28 L 42 28 L 42 29 L 43 29 L 43 30 L 39 30 L 39 31 L 38 31 L 38 32 L 37 32 L 37 29 L 38 29 L 38 28 L 37 28 L 37 26 L 36 26 L 36 25 L 34 25 z M 39 24 L 40 24 L 40 25 L 39 25 z M 46 24 L 47 24 L 47 25 L 46 25 z M 48 24 L 49 24 L 49 26 L 50 26 L 50 25 L 51 25 L 51 26 L 52 26 L 52 27 L 50 27 L 50 28 L 52 28 L 52 31 L 51 31 L 51 30 L 50 30 L 50 29 L 49 29 L 49 28 L 46 28 L 46 27 L 45 27 L 45 28 L 46 28 L 46 29 L 43 29 L 43 28 L 44 28 L 44 27 L 43 27 L 43 28 L 42 28 L 42 26 L 43 26 L 43 25 L 44 25 L 44 26 L 47 26 L 47 27 L 48 27 L 48 26 L 47 26 L 47 25 L 48 25 z M 11 25 L 12 25 L 12 26 L 11 26 z M 28 25 L 30 25 L 30 26 L 28 26 z M 40 25 L 41 25 L 41 26 L 40 26 z M 57 25 L 58 25 L 58 26 L 59 26 L 59 28 L 56 28 L 56 26 L 57 26 z M 22 26 L 23 26 L 23 28 L 22 28 z M 25 26 L 26 26 L 26 27 L 25 27 z M 32 26 L 36 26 L 36 27 L 35 27 L 35 28 L 33 28 L 33 27 L 32 27 z M 60 26 L 61 26 L 61 28 L 60 28 z M 10 27 L 11 27 L 11 28 L 10 28 z M 29 27 L 30 27 L 30 28 L 29 28 z M 31 27 L 32 27 L 32 28 L 31 28 z M 52 27 L 53 27 L 53 28 L 52 28 z M 11 28 L 12 28 L 12 29 L 11 29 z M 35 28 L 36 28 L 36 30 L 34 30 L 34 32 L 35 32 L 35 33 L 34 33 L 34 36 L 35 36 L 35 37 L 38 37 L 38 38 L 34 38 L 34 37 L 33 37 L 33 39 L 30 39 L 30 38 L 31 38 L 31 37 L 32 37 L 32 36 L 33 36 L 33 35 L 32 35 L 32 34 L 33 34 L 33 29 L 35 29 z M 59 28 L 60 28 L 60 29 L 61 29 L 61 31 L 60 31 L 60 30 L 58 30 L 58 31 L 57 31 L 57 29 L 59 29 z M 9 29 L 11 29 L 11 30 L 9 30 z M 46 29 L 47 29 L 47 30 L 46 30 z M 3 30 L 4 30 L 4 31 L 3 31 z M 11 30 L 13 30 L 13 31 L 11 31 z M 45 30 L 46 30 L 46 31 L 45 31 z M 47 30 L 48 30 L 48 31 L 47 31 z M 49 30 L 50 30 L 50 31 L 51 31 L 51 32 L 52 32 L 52 34 L 53 34 L 53 36 L 51 36 L 51 35 L 50 35 L 50 34 L 51 34 L 51 33 L 50 33 L 50 32 L 49 32 z M 1 31 L 3 31 L 3 32 L 2 32 L 2 36 L 1 36 L 1 33 L 0 33 L 0 32 L 1 32 z M 9 31 L 11 31 L 11 32 L 12 32 L 12 33 L 10 33 L 10 34 L 9 34 z M 13 31 L 14 31 L 14 33 L 13 33 z M 42 31 L 44 31 L 44 33 L 41 33 L 41 32 L 42 32 z M 58 31 L 59 31 L 59 32 L 58 32 z M 3 32 L 4 32 L 4 33 L 3 33 z M 18 32 L 19 32 L 19 34 L 18 34 z M 39 32 L 40 32 L 40 33 L 39 33 z M 46 32 L 47 32 L 47 33 L 48 33 L 48 32 L 49 32 L 49 34 L 48 34 L 48 35 L 49 35 L 49 36 L 51 36 L 51 37 L 52 37 L 52 40 L 51 40 L 51 41 L 49 41 L 49 42 L 50 42 L 50 43 L 48 43 L 48 42 L 47 42 L 47 43 L 46 43 L 46 42 L 45 42 L 45 38 L 44 38 L 44 40 L 42 40 L 42 37 L 40 37 L 40 36 L 39 36 L 39 35 L 40 35 L 40 33 L 41 33 L 41 35 L 43 35 L 43 34 L 46 34 zM 45 35 L 47 35 L 47 36 L 48 36 L 48 37 L 50 37 L 50 38 L 49 38 L 49 39 L 48 39 L 48 38 L 47 38 L 47 37 L 46 37 L 46 36 L 45 36 z M 44 36 L 45 36 L 45 37 L 44 37 z M 46 38 L 47 38 L 47 39 L 48 39 L 48 40 L 47 40 L 47 41 L 46 41 z M 49 39 L 50 39 L 50 40 L 49 40 z M 60 32 L 61 32 L 61 33 L 60 33 z M 4 33 L 6 33 L 6 34 L 7 34 L 7 35 L 5 35 L 5 34 L 4 34 z M 7 33 L 8 33 L 8 34 L 7 34 z M 15 33 L 16 33 L 16 34 L 15 34 z M 21 33 L 22 33 L 22 36 L 23 36 L 23 35 L 24 35 L 24 36 L 26 36 L 26 37 L 23 37 L 23 38 L 20 38 L 20 39 L 19 39 L 19 38 L 18 38 L 18 39 L 17 39 L 17 34 L 18 34 L 18 35 L 19 35 L 19 34 L 20 34 L 20 36 L 19 36 L 19 37 L 21 37 z M 23 33 L 24 33 L 24 34 L 23 34 z M 25 33 L 26 33 L 26 35 L 25 35 z M 30 33 L 31 33 L 31 34 L 30 34 z M 35 33 L 39 33 L 39 34 L 38 34 L 38 35 L 35 35 z M 55 33 L 57 33 L 57 34 L 61 34 L 61 36 L 60 36 L 60 35 L 57 35 L 57 36 L 59 36 L 59 37 L 58 37 L 58 38 L 56 38 L 56 34 L 55 34 z M 3 34 L 4 34 L 4 35 L 3 35 z M 8 34 L 9 34 L 9 36 L 10 36 L 10 34 L 13 34 L 13 35 L 11 35 L 11 36 L 13 36 L 13 37 L 10 37 L 10 38 L 9 38 L 9 37 L 6 37 L 6 36 L 8 36 z M 4 35 L 5 35 L 5 37 L 6 37 L 6 38 L 8 38 L 8 39 L 5 39 L 5 38 L 4 38 z M 13 35 L 16 35 L 16 38 L 13 38 L 13 37 L 15 37 L 15 36 L 13 36 z M 29 35 L 32 35 L 32 36 L 31 36 L 31 37 L 30 37 L 30 36 L 29 36 z M 54 35 L 55 35 L 55 37 L 54 37 z M 1 37 L 2 37 L 2 39 L 1 39 z M 27 37 L 28 37 L 28 38 L 27 38 z M 29 37 L 30 37 L 30 38 L 29 38 z M 39 37 L 40 37 L 40 38 L 39 38 z M 53 37 L 54 37 L 54 38 L 53 38 z M 59 37 L 60 37 L 60 38 L 59 38 z M 3 38 L 4 38 L 4 39 L 3 39 z M 11 38 L 13 38 L 13 40 L 11 40 z M 23 38 L 25 38 L 25 39 L 24 39 L 24 40 L 22 40 L 22 39 L 23 39 z M 28 38 L 29 38 L 29 39 L 30 39 L 30 40 L 29 40 L 29 41 L 28 41 z M 38 38 L 39 38 L 39 39 L 38 39 z M 40 38 L 41 38 L 41 39 L 40 39 z M 2 39 L 3 39 L 3 40 L 2 40 z M 8 39 L 10 39 L 10 40 L 11 40 L 11 41 L 13 41 L 13 43 L 14 43 L 14 41 L 15 41 L 15 45 L 14 45 L 14 44 L 11 44 L 11 43 L 9 43 L 9 42 L 10 42 L 10 41 L 9 41 L 9 42 L 8 42 z M 14 39 L 15 39 L 15 40 L 14 40 z M 16 39 L 17 39 L 17 40 L 16 40 z M 35 39 L 36 39 L 36 40 L 35 40 z M 53 39 L 56 39 L 56 40 L 57 40 L 57 41 L 56 41 L 56 42 L 57 42 L 57 43 L 56 43 L 56 44 L 57 44 L 57 45 L 56 45 L 56 46 L 57 46 L 57 47 L 56 47 L 56 50 L 57 50 L 57 49 L 58 49 L 58 51 L 57 51 L 57 52 L 55 52 L 55 47 L 54 47 L 54 46 L 55 46 L 55 45 L 54 45 L 54 44 L 52 44 L 52 45 L 50 45 L 50 46 L 49 46 L 49 47 L 46 47 L 46 45 L 47 45 L 47 46 L 48 46 L 48 44 L 50 44 L 50 43 L 52 43 L 52 42 L 53 42 L 53 41 L 54 41 L 54 42 L 55 42 L 55 40 L 53 40 z M 57 39 L 59 39 L 59 40 L 57 40 z M 1 40 L 2 40 L 2 41 L 3 41 L 3 40 L 4 40 L 4 41 L 5 41 L 5 42 L 0 42 L 0 41 L 1 41 z M 6 40 L 7 40 L 7 41 L 6 41 z M 13 40 L 14 40 L 14 41 L 13 41 z M 15 40 L 16 40 L 16 41 L 15 41 z M 17 40 L 18 40 L 18 41 L 17 41 z M 19 40 L 20 40 L 20 41 L 19 41 z M 32 40 L 34 40 L 34 41 L 32 41 z M 38 40 L 39 40 L 39 41 L 38 41 z M 40 40 L 42 40 L 42 41 L 44 41 L 44 42 L 39 42 L 39 41 L 40 41 z M 59 40 L 61 40 L 61 41 L 59 41 z M 18 41 L 19 41 L 19 42 L 20 42 L 20 43 L 18 43 z M 22 41 L 23 41 L 23 42 L 24 42 L 24 46 L 25 46 L 25 48 L 26 48 L 26 49 L 27 49 L 27 50 L 28 50 L 28 51 L 29 51 L 29 52 L 27 52 L 27 51 L 25 51 L 25 52 L 27 52 L 27 53 L 26 53 L 26 54 L 25 54 L 25 53 L 24 53 L 24 48 L 23 48 L 23 44 L 21 44 L 21 42 L 22 42 z M 24 41 L 27 41 L 27 42 L 26 42 L 26 43 L 27 43 L 27 42 L 29 42 L 29 41 L 30 41 L 30 42 L 33 42 L 33 43 L 35 43 L 35 42 L 36 42 L 36 44 L 35 44 L 35 45 L 34 45 L 34 44 L 33 44 L 33 45 L 32 45 L 32 43 L 30 43 L 30 44 L 31 44 L 31 45 L 30 45 L 30 47 L 29 47 L 29 44 L 28 44 L 28 48 L 27 48 L 27 47 L 26 47 L 26 46 L 27 46 L 27 44 L 26 44 L 26 46 L 25 46 L 25 42 L 24 42 z M 34 41 L 35 41 L 35 42 L 34 42 z M 36 41 L 37 41 L 37 42 L 36 42 z M 6 42 L 7 42 L 7 43 L 6 43 z M 37 42 L 38 42 L 38 44 L 37 44 z M 59 42 L 60 42 L 60 43 L 59 43 z M 1 43 L 3 43 L 3 44 L 4 44 L 4 45 L 3 45 L 3 47 L 0 47 L 0 45 L 1 45 L 1 46 L 2 46 L 2 44 L 1 44 z M 5 43 L 6 43 L 6 44 L 7 44 L 7 45 L 5 45 z M 7 43 L 8 43 L 8 44 L 7 44 z M 16 43 L 17 43 L 17 45 L 16 45 z M 39 43 L 40 43 L 40 44 L 39 44 z M 43 43 L 44 43 L 44 44 L 43 44 z M 45 43 L 46 43 L 46 44 L 45 44 z M 57 43 L 59 43 L 59 44 L 57 44 z M 8 44 L 11 44 L 11 45 L 12 45 L 12 46 L 11 46 L 11 47 L 10 47 L 10 48 L 12 48 L 12 49 L 11 49 L 11 51 L 10 51 L 10 54 L 9 54 L 9 55 L 8 55 L 8 53 L 6 53 L 6 52 L 8 52 L 8 51 L 9 51 L 9 50 L 10 50 L 10 49 L 8 49 L 8 51 L 5 51 L 5 52 L 4 52 L 4 51 L 3 51 L 3 52 L 4 52 L 4 53 L 0 53 L 0 51 L 2 51 L 2 49 L 1 49 L 1 48 L 3 48 L 3 47 L 4 47 L 4 45 L 5 45 L 5 46 L 7 46 L 7 45 L 8 45 zM 5 47 L 9 47 L 9 48 L 6 48 L 6 49 L 5 49 z M 3 49 L 5 49 L 5 50 L 3 50 z M 6 49 L 7 49 L 7 50 L 6 50 z M 19 44 L 21 44 L 21 45 L 22 45 L 22 47 L 21 47 L 21 46 L 19 46 z M 38 44 L 39 44 L 39 45 L 40 45 L 40 44 L 41 44 L 41 45 L 42 45 L 42 46 L 40 46 L 40 48 L 37 48 L 37 47 L 35 47 L 35 46 L 36 46 L 36 45 L 37 45 L 37 46 L 38 46 L 38 47 L 39 47 L 39 46 L 38 46 z M 42 44 L 43 44 L 43 45 L 42 45 z M 59 44 L 61 44 L 61 47 L 60 47 L 60 48 L 59 48 L 59 49 L 58 49 L 58 47 L 59 47 z M 15 45 L 16 45 L 16 46 L 15 46 z M 17 45 L 18 45 L 18 46 L 19 46 L 19 47 L 18 47 L 18 48 L 17 48 z M 52 45 L 53 45 L 53 46 L 52 46 z M 57 45 L 58 45 L 58 46 L 57 46 z M 12 46 L 13 46 L 13 48 L 12 48 z M 14 46 L 15 46 L 15 48 L 14 48 z M 42 46 L 43 46 L 43 47 L 46 47 L 46 48 L 44 48 L 44 49 L 45 49 L 45 50 L 49 50 L 49 49 L 50 49 L 50 51 L 51 51 L 51 52 L 52 52 L 52 54 L 51 54 L 51 53 L 50 53 L 50 52 L 49 52 L 49 53 L 48 53 L 48 52 L 47 52 L 47 51 L 44 51 L 44 50 L 43 50 L 43 48 L 42 48 z M 50 46 L 52 46 L 52 47 L 54 47 L 54 48 L 53 48 L 53 49 L 52 49 L 52 48 L 51 48 L 51 49 L 50 49 z M 30 47 L 33 47 L 33 49 L 32 49 L 32 48 L 31 48 L 31 49 L 32 49 L 32 52 L 30 52 L 30 51 L 29 51 L 29 48 L 30 48 z M 15 48 L 16 48 L 16 49 L 15 49 z M 18 48 L 22 48 L 22 49 L 21 49 L 21 50 L 20 50 L 20 49 L 18 49 z M 34 48 L 37 48 L 37 49 L 34 49 z M 41 48 L 42 48 L 42 49 L 41 49 z M 47 48 L 48 48 L 48 49 L 47 49 z M 60 48 L 61 48 L 61 52 L 59 52 L 59 51 L 60 51 z M 12 49 L 13 49 L 13 50 L 14 50 L 14 52 L 13 52 L 13 51 L 12 51 z M 14 49 L 15 49 L 15 50 L 14 50 z M 16 49 L 18 49 L 18 50 L 19 50 L 19 51 L 21 51 L 21 52 L 20 52 L 20 53 L 22 53 L 22 52 L 23 52 L 23 53 L 24 53 L 24 54 L 21 54 L 21 56 L 19 56 L 19 57 L 21 57 L 21 56 L 22 56 L 22 57 L 23 57 L 23 56 L 22 56 L 22 55 L 24 55 L 24 54 L 25 54 L 25 55 L 27 55 L 27 56 L 26 56 L 26 57 L 24 57 L 24 58 L 27 58 L 27 59 L 28 59 L 28 58 L 29 58 L 29 59 L 30 59 L 30 60 L 29 60 L 29 61 L 26 61 L 26 60 L 24 60 L 24 59 L 21 59 L 21 60 L 20 60 L 20 61 L 18 61 L 18 60 L 19 60 L 19 59 L 20 59 L 20 58 L 17 58 L 17 59 L 16 59 L 16 61 L 14 61 L 14 60 L 12 60 L 12 59 L 13 59 L 13 58 L 14 58 L 14 59 L 15 59 L 15 58 L 16 58 L 16 56 L 17 56 L 17 57 L 18 57 L 18 56 L 17 56 L 17 55 L 18 55 L 18 54 L 19 54 L 19 53 L 17 53 L 17 52 L 16 52 L 16 51 L 15 51 L 15 50 L 16 50 z M 33 49 L 34 49 L 34 50 L 33 50 z M 37 49 L 39 49 L 39 52 L 41 52 L 41 53 L 37 53 L 37 52 L 34 52 L 34 54 L 33 54 L 33 51 L 35 51 L 35 50 L 36 50 L 36 51 L 38 51 L 38 50 L 37 50 z M 53 49 L 54 49 L 54 50 L 53 50 z M 22 50 L 23 50 L 23 51 L 22 51 z M 40 50 L 43 50 L 43 51 L 40 51 z M 52 50 L 53 50 L 53 52 L 52 52 z M 43 51 L 44 51 L 44 53 L 45 53 L 45 52 L 46 52 L 46 53 L 47 53 L 47 54 L 49 54 L 49 53 L 50 53 L 50 56 L 51 56 L 51 57 L 50 57 L 50 58 L 49 58 L 49 56 L 48 56 L 48 55 L 47 55 L 47 56 L 48 56 L 48 57 L 46 57 L 46 58 L 47 58 L 47 59 L 46 59 L 46 60 L 45 60 L 45 59 L 43 59 L 43 58 L 41 58 L 41 57 L 42 57 L 42 56 L 43 56 L 43 57 L 44 57 L 44 58 L 45 58 L 45 57 L 44 57 L 44 56 L 43 56 L 43 55 L 44 55 L 44 54 L 43 54 L 43 53 L 42 53 L 42 52 L 43 52 zM 45 55 L 46 55 L 46 56 L 45 56 z M 12 52 L 13 52 L 13 53 L 14 53 L 14 54 L 11 54 L 11 53 L 12 53 z M 14 52 L 15 52 L 15 53 L 14 53 z M 16 53 L 17 53 L 17 55 L 16 55 L 16 56 L 15 56 L 15 54 L 16 54 z M 35 53 L 37 53 L 37 55 L 38 55 L 38 58 L 37 58 L 37 57 L 35 57 L 35 58 L 33 58 L 33 57 L 34 57 L 34 56 L 36 56 L 36 55 L 34 55 L 34 54 L 35 54 z M 41 53 L 42 53 L 42 54 L 41 54 z M 59 53 L 61 53 L 61 56 L 60 56 L 60 54 L 59 54 z M 27 54 L 28 54 L 28 55 L 27 55 z M 39 54 L 40 54 L 40 56 L 39 56 z M 10 55 L 11 55 L 11 56 L 10 56 z M 13 55 L 14 55 L 14 56 L 13 56 z M 33 55 L 34 55 L 34 56 L 33 56 z M 41 55 L 42 55 L 42 56 L 41 56 z M 51 55 L 52 55 L 52 56 L 51 56 z M 8 56 L 9 56 L 9 57 L 10 57 L 10 61 L 8 61 z M 11 56 L 13 56 L 13 57 L 12 57 L 12 58 L 11 58 z M 27 56 L 28 56 L 28 57 L 27 57 z M 40 56 L 41 56 L 41 57 L 40 57 z M 58 56 L 59 56 L 59 57 L 60 57 L 60 58 L 56 58 L 56 57 L 58 57 z M 14 57 L 15 57 L 15 58 L 14 58 z M 30 57 L 32 57 L 32 58 L 30 58 z M 35 58 L 36 58 L 36 59 L 35 59 z M 39 58 L 40 58 L 40 59 L 39 59 z M 48 58 L 49 58 L 49 59 L 48 59 z M 50 58 L 51 58 L 51 61 L 48 61 L 48 60 L 50 60 z M 52 58 L 54 58 L 54 59 L 55 59 L 55 61 L 54 61 L 54 60 L 53 60 L 53 59 L 52 59 z M 55 58 L 56 58 L 56 59 L 55 59 z M 60 58 L 61 58 L 61 59 L 60 59 z M 17 59 L 18 59 L 18 60 L 17 60 z M 33 59 L 35 59 L 35 61 L 30 61 L 30 60 L 33 60 z M 37 59 L 39 59 L 39 60 L 40 60 L 40 61 L 37 61 z M 40 59 L 42 59 L 42 60 L 40 60 z M 56 59 L 57 59 L 57 60 L 56 60 z M 11 60 L 12 60 L 12 61 L 11 61 z M 23 60 L 24 60 L 24 61 L 23 61 z M 43 60 L 45 60 L 45 61 L 43 61 z M 52 60 L 53 60 L 53 61 L 52 61 z M 57 60 L 58 60 L 58 61 L 57 61 z M 60 60 L 61 60 L 61 61 L 60 61 z"></path><path id="qr squares" d="M0,0h7h0v0v7v0h0h-7h0v0v-7v0h0zM1,1h5h0v0v5v0h0h-5h0v0v-5v0h0zM2,2h3h0v0v3v0h0h-3h0v0v-3v0h0z M54,0h7h0v0v7v0h0h-7h0v0v-7v0h0zM55,1h5h0v0v5v0h0h-5h0v0v-5v0h0zM56,2h3h0v0v3v0h0h-3h0v0v-3v0h0z M0,54h7h0v0v7v0h0h-7h0v0v-7v0h0zM1,55h5h0v0v5v0h0h-5h0v0v-5v0h0zM2,56h3h0v0v3v0h0h-3h0v0v-3v0h0zM4,28h5h0v0v5v0h0h-5h0v0v-5v0h0zM5,29h3h0v0v3v0h0h-3h0v0v-3v0h0zM6,30h1h0v0v1v0h0h-1h0v0v-1v0h0z M28,4h5h0v0v5v0h0h-5h0v0v-5v0h0zM29,5h3h0v0v3v0h0h-3h0v0v-3v0h0zM30,6h1h0v0v1v0h0h-1h0v0v-1v0h0z M28,28h5h0v0v5v0h0h-5h0v0v-5v0h0zM29,29h3h0v0v3v0h0h-3h0v0v-3v0h0zM30,30h1h0v0v1v0h0h-1h0v0v-1v0h0z M28,52h5h0v0v5v0h0h-5h0v0v-5v0h0zM29,53h3h0v0v3v0h0h-3h0v0v-3v0h0zM30,54h1h0v0v1v0h0h-1h0v0v-1v0h0z M52,28h5h0v0v5v0h0h-5h0v0v-5v0h0zM53,29h3h0v0v3v0h0h-3h0v0v-3v0h0zM54,30h1h0v0v1v0h0h-1h0v0v-1v0h0z M52,52h5h0v0v5v0h0h-5h0v0v-5v0h0zM53,53h3h0v0v3v0h0h-3h0v0v-3v0h0zM54,54h1h0v0v1v0h0h-1h0v0v-1v0h0z" fill-rule="evenodd" fill-opacity="1" fill="rgb(0, 0, 0)"></path></svg>