<?xml version="1.0" encoding="utf-8" standalone="yes"?> <svg width="1000" height="1000" viewBox="-1 -1 67 67" xmlns="http://www.w3.org/2000/svg" xmlns:xlink="http://www.w3.org/1999/xlink" shape-rendering="crispEdges" id="qr code"><rect id="qr background" fill-opacity="1" fill="rgb(255, 255, 255)" x="-1" y="-1" width="67" height="67"></rect><path fill-opacity="1" fill="rgb(0, 0, 0)" id="qr dark pixels" fill-rule="evenodd" d="M 9 0 L 12 0 L 12 1 L 13 1 L 13 0 L 14 0 L 14 3 L 16 3 L 16 5 L 15 5 L 15 8 L 14 8 L 14 6 L 13 6 L 13 5 L 14 5 L 14 4 L 11 4 L 11 3 L 13 3 L 13 2 L 11 2 L 11 3 L 10 3 L 10 2 L 8 2 L 8 1 L 9 1 z M 16 0 L 20 0 L 20 1 L 18 1 L 18 2 L 17 2 L 17 1 L 16 1 z M 23 0 L 25 0 L 25 1 L 24 1 L 24 3 L 23 3 L 23 4 L 22 4 L 22 3 L 19 3 L 19 2 L 20 2 L 20 1 L 21 1 L 21 2 L 22 2 L 22 1 L 23 1 z M 26 0 L 28 0 L 28 1 L 29 1 L 29 0 L 30 0 L 30 1 L 31 1 L 31 2 L 29 2 L 29 3 L 31 3 L 31 4 L 28 4 L 28 3 L 27 3 L 27 4 L 25 4 L 25 3 L 26 3 L 26 2 L 25 2 L 25 1 L 26 1 z M 31 0 L 34 0 L 34 3 L 33 3 L 33 2 L 32 2 L 32 1 L 31 1 z M 36 0 L 37 0 L 37 1 L 36 1 z M 40 0 L 41 0 L 41 1 L 40 1 z M 43 0 L 44 0 L 44 1 L 43 1 z M 46 0 L 51 0 L 51 2 L 50 2 L 50 1 L 47 1 L 47 2 L 46 2 z M 52 0 L 53 0 L 53 1 L 52 1 z M 55 0 L 56 0 L 56 1 L 55 1 z M 35 1 L 36 1 L 36 2 L 35 2 z M 37 1 L 39 1 L 39 2 L 40 2 L 40 3 L 38 3 L 38 5 L 37 5 L 37 7 L 38 7 L 38 8 L 36 8 L 36 6 L 35 6 L 35 5 L 36 5 L 36 4 L 37 4 L 37 3 L 36 3 L 36 2 L 37 2 z M 42 1 L 43 1 L 43 2 L 42 2 z M 56 1 L 57 1 L 57 3 L 56 3 z M 31 2 L 32 2 L 32 3 L 31 3 z M 45 2 L 46 2 L 46 3 L 45 3 z M 47 2 L 50 2 L 50 3 L 52 3 L 52 4 L 54 4 L 54 5 L 55 5 L 55 7 L 54 7 L 54 6 L 53 6 L 53 5 L 52 5 L 52 6 L 51 6 L 51 7 L 52 7 L 52 8 L 53 8 L 53 9 L 51 9 L 51 11 L 50 11 L 50 12 L 48 12 L 48 11 L 49 11 L 49 10 L 48 10 L 48 9 L 49 9 L 49 8 L 50 8 L 50 5 L 49 5 L 49 8 L 47 8 L 47 7 L 48 7 L 48 5 L 47 5 L 47 4 L 49 4 L 49 3 L 47 3 z M 52 2 L 55 2 L 55 3 L 56 3 L 56 4 L 54 4 L 54 3 L 52 3 z M 8 3 L 10 3 L 10 4 L 11 4 L 11 7 L 12 7 L 12 8 L 11 8 L 11 9 L 8 9 L 8 10 L 7 10 L 7 9 L 6 9 L 6 8 L 10 8 L 10 6 L 9 6 L 9 7 L 8 7 L 8 5 L 9 5 L 9 4 L 8 4 z M 17 3 L 18 3 L 18 4 L 17 4 z M 32 3 L 33 3 L 33 4 L 32 4 z M 40 3 L 42 3 L 42 6 L 41 6 L 41 4 L 40 4 z M 43 3 L 44 3 L 44 4 L 43 4 z M 46 3 L 47 3 L 47 4 L 46 4 z M 18 4 L 19 4 L 19 5 L 21 5 L 21 4 L 22 4 L 22 6 L 21 6 L 21 8 L 20 8 L 20 6 L 19 6 L 19 7 L 18 7 z M 24 4 L 25 4 L 25 5 L 24 5 z M 39 4 L 40 4 L 40 5 L 39 5 z M 56 4 L 57 4 L 57 5 L 56 5 z M 16 5 L 17 5 L 17 7 L 16 7 z M 25 5 L 26 5 L 26 6 L 25 6 z M 28 5 L 30 5 L 30 6 L 29 6 L 29 8 L 28 8 L 28 9 L 27 9 L 27 10 L 26 10 L 26 9 L 25 9 L 25 8 L 26 8 L 26 6 L 27 6 L 27 7 L 28 7 z M 38 5 L 39 5 L 39 7 L 38 7 z M 45 5 L 47 5 L 47 7 L 46 7 L 46 6 L 45 6 z M 12 6 L 13 6 L 13 7 L 12 7 z M 22 6 L 23 6 L 23 8 L 22 8 z M 24 6 L 25 6 L 25 7 L 24 7 z M 40 6 L 41 6 L 41 7 L 40 7 z M 42 6 L 43 6 L 43 7 L 44 7 L 44 6 L 45 6 L 45 8 L 44 8 L 44 9 L 43 9 L 43 8 L 42 8 z M 52 6 L 53 6 L 53 7 L 52 7 z M 56 6 L 57 6 L 57 8 L 56 8 L 56 9 L 55 9 L 55 10 L 56 10 L 56 11 L 55 11 L 55 12 L 54 12 L 54 11 L 53 11 L 53 9 L 54 9 L 54 8 L 55 8 L 55 7 L 56 7 z M 39 7 L 40 7 L 40 10 L 39 10 L 39 11 L 37 11 L 37 10 L 38 10 L 38 9 L 39 9 z M 53 7 L 54 7 L 54 8 L 53 8 z M 0 8 L 5 8 L 5 12 L 4 12 L 4 11 L 3 11 L 3 9 L 2 9 L 2 10 L 1 10 L 1 13 L 0 13 z M 16 8 L 20 8 L 20 9 L 19 9 L 19 10 L 18 10 L 18 9 L 17 9 L 17 10 L 16 10 z M 21 8 L 22 8 L 22 9 L 21 9 z M 23 8 L 24 8 L 24 10 L 23 10 z M 41 8 L 42 8 L 42 9 L 41 9 z M 57 8 L 58 8 L 58 9 L 57 9 z M 59 8 L 60 8 L 60 10 L 59 10 z M 61 8 L 62 8 L 62 9 L 61 9 z M 63 8 L 64 8 L 64 9 L 65 9 L 65 14 L 64 14 L 64 16 L 62 16 L 62 13 L 61 13 L 61 12 L 63 12 L 63 13 L 64 13 L 64 11 L 62 11 L 62 9 L 63 9 z M 20 9 L 21 9 L 21 10 L 20 10 z M 28 9 L 29 9 L 29 10 L 28 10 z M 34 9 L 36 9 L 36 12 L 40 12 L 40 11 L 41 11 L 41 10 L 43 10 L 43 11 L 42 11 L 42 13 L 43 13 L 43 14 L 44 14 L 44 15 L 47 15 L 47 13 L 50 13 L 50 14 L 51 14 L 51 15 L 50 15 L 50 16 L 49 16 L 49 17 L 50 17 L 50 18 L 48 18 L 48 16 L 46 16 L 46 17 L 45 17 L 45 16 L 43 16 L 43 15 L 42 15 L 42 14 L 41 14 L 41 13 L 38 13 L 38 14 L 37 14 L 37 13 L 35 13 L 35 12 L 34 12 zM 48 14 L 49 14 L 49 15 L 48 15 z M 45 9 L 47 9 L 47 11 L 46 11 L 46 10 L 45 10 z M 56 9 L 57 9 L 57 10 L 56 10 z M 6 10 L 7 10 L 7 11 L 6 11 z M 11 10 L 14 10 L 14 11 L 13 11 L 13 12 L 11 12 L 11 13 L 13 13 L 13 12 L 14 12 L 14 13 L 16 13 L 16 14 L 17 14 L 17 15 L 18 15 L 18 13 L 19 13 L 19 14 L 20 14 L 20 15 L 19 15 L 19 17 L 18 17 L 18 16 L 16 16 L 16 17 L 13 17 L 13 18 L 12 18 L 12 20 L 11 20 L 11 19 L 10 19 L 10 18 L 9 18 L 9 17 L 8 17 L 8 14 L 9 14 L 9 13 L 10 13 L 10 12 L 8 12 L 8 13 L 6 13 L 6 12 L 7 12 L 7 11 L 11 11 zM 11 14 L 13 14 L 13 15 L 15 15 L 15 16 L 12 16 L 12 15 L 11 15 z M 9 15 L 11 15 L 11 16 L 9 16 z M 24 10 L 26 10 L 26 11 L 27 11 L 27 12 L 26 12 L 26 14 L 25 14 L 25 16 L 24 16 L 24 15 L 23 15 L 23 14 L 24 14 L 24 13 L 23 13 L 23 14 L 21 14 L 21 12 L 20 12 L 20 13 L 19 13 L 19 11 L 24 11 L 24 12 L 25 12 L 25 11 L 24 11 z M 30 10 L 31 10 L 31 12 L 30 12 z M 2 11 L 3 11 L 3 13 L 2 13 z M 14 11 L 16 11 L 16 12 L 14 12 z M 17 11 L 18 11 L 18 13 L 17 13 z M 28 11 L 29 11 L 29 12 L 28 12 z M 32 11 L 33 11 L 33 12 L 32 12 z M 43 11 L 44 11 L 44 12 L 43 12 z M 51 11 L 52 11 L 52 13 L 54 13 L 54 14 L 55 14 L 55 12 L 56 12 L 56 14 L 57 14 L 57 13 L 58 13 L 58 15 L 60 15 L 60 16 L 59 16 L 59 17 L 58 17 L 58 16 L 54 16 L 54 17 L 56 17 L 56 20 L 55 20 L 55 19 L 53 19 L 53 20 L 52 20 L 52 22 L 54 22 L 54 21 L 56 21 L 56 22 L 55 22 L 55 23 L 53 23 L 53 24 L 55 24 L 55 25 L 54 25 L 54 26 L 52 26 L 52 27 L 51 27 L 51 28 L 49 28 L 49 29 L 48 29 L 48 30 L 50 30 L 50 31 L 47 31 L 47 30 L 46 30 L 46 29 L 45 29 L 45 28 L 44 28 L 44 26 L 45 26 L 45 23 L 46 23 L 46 22 L 49 22 L 49 21 L 51 21 L 51 19 L 52 19 L 52 18 L 51 18 L 51 15 L 53 15 L 53 14 L 51 14 zM 50 22 L 51 22 L 51 23 L 50 23 z M 47 23 L 48 23 L 48 25 L 47 25 z M 49 23 L 50 23 L 50 25 L 49 25 z M 51 24 L 52 24 L 52 25 L 51 25 z M 48 25 L 49 25 L 49 26 L 48 26 z M 46 26 L 48 26 L 48 28 L 47 28 L 47 27 L 46 27 z M 56 11 L 57 11 L 57 12 L 56 12 z M 58 11 L 60 11 L 60 13 L 59 13 L 59 12 L 58 12 z M 31 12 L 32 12 L 32 14 L 31 14 z M 33 12 L 34 12 L 34 13 L 33 13 z M 44 12 L 45 12 L 45 13 L 44 13 z M 46 12 L 47 12 L 47 13 L 46 13 z M 1 13 L 2 13 L 2 14 L 1 14 z M 3 13 L 4 13 L 4 14 L 3 14 z M 27 13 L 28 13 L 28 14 L 27 14 z M 34 13 L 35 13 L 35 14 L 34 14 z M 45 13 L 46 13 L 46 14 L 45 14 z M 0 14 L 1 14 L 1 15 L 0 15 z M 4 14 L 7 14 L 7 15 L 4 15 z M 26 14 L 27 14 L 27 15 L 28 15 L 28 16 L 27 16 L 27 17 L 29 17 L 29 16 L 31 16 L 31 17 L 30 17 L 30 20 L 29 20 L 29 19 L 28 19 L 28 18 L 26 18 z M 29 14 L 31 14 L 31 15 L 29 15 z M 32 14 L 34 14 L 34 15 L 33 15 L 33 17 L 34 17 L 34 18 L 32 18 L 32 19 L 34 19 L 34 20 L 36 20 L 36 21 L 37 21 L 37 23 L 40 23 L 40 21 L 42 21 L 42 22 L 41 22 L 41 25 L 40 25 L 40 26 L 39 26 L 39 27 L 38 27 L 38 26 L 36 26 L 36 27 L 35 27 L 35 28 L 40 28 L 40 29 L 41 29 L 41 31 L 40 31 L 40 30 L 39 30 L 39 29 L 37 29 L 37 33 L 36 33 L 36 32 L 35 32 L 35 31 L 36 31 L 36 30 L 35 30 L 35 29 L 33 29 L 33 30 L 31 30 L 31 29 L 32 29 L 32 28 L 33 28 L 33 27 L 34 27 L 34 26 L 33 26 L 33 25 L 34 25 L 34 24 L 33 24 L 33 25 L 32 25 L 32 22 L 31 22 L 31 21 L 30 21 L 30 20 L 31 20 L 31 17 L 32 17 L 32 16 L 31 16 L 31 15 L 32 15 zM 32 20 L 33 20 L 33 21 L 32 21 z M 34 21 L 35 21 L 35 23 L 33 23 L 33 22 L 34 22 z M 35 24 L 39 24 L 39 25 L 35 25 z M 36 14 L 37 14 L 37 15 L 36 15 z M 2 15 L 3 15 L 3 16 L 2 16 z M 22 15 L 23 15 L 23 16 L 24 16 L 24 17 L 22 17 L 22 19 L 21 19 L 21 20 L 22 20 L 22 21 L 20 21 L 20 16 L 22 16 z M 39 15 L 40 15 L 40 16 L 39 16 z M 0 16 L 2 16 L 2 17 L 1 17 L 1 18 L 2 18 L 2 19 L 0 19 z M 6 16 L 7 16 L 7 17 L 6 17 z M 35 16 L 39 16 L 39 17 L 36 17 L 36 18 L 35 18 z M 41 16 L 43 16 L 43 17 L 44 17 L 44 18 L 43 18 L 43 19 L 44 19 L 44 21 L 42 21 L 42 20 L 41 20 L 41 19 L 42 19 L 42 17 L 41 17 z M 61 16 L 62 16 L 62 17 L 63 17 L 63 18 L 61 18 L 61 20 L 62 20 L 62 21 L 64 21 L 64 23 L 63 23 L 63 24 L 61 24 L 61 23 L 60 23 L 60 24 L 61 24 L 61 25 L 59 25 L 59 24 L 58 24 L 58 23 L 57 23 L 57 24 L 58 24 L 58 25 L 59 25 L 59 27 L 58 27 L 58 28 L 65 28 L 65 30 L 64 30 L 64 32 L 63 32 L 63 33 L 61 33 L 61 29 L 60 29 L 60 30 L 59 30 L 59 29 L 58 29 L 58 30 L 56 30 L 56 29 L 55 29 L 55 27 L 56 27 L 56 28 L 57 28 L 57 27 L 56 27 L 56 24 L 55 24 L 55 23 L 56 23 L 56 22 L 61 22 L 61 21 L 59 21 L 59 20 L 58 20 L 58 21 L 57 21 L 57 17 L 58 17 L 58 19 L 59 19 L 59 17 L 61 17 zM 62 30 L 63 30 L 63 31 L 62 31 z M 4 17 L 5 17 L 5 18 L 4 18 z M 24 17 L 25 17 L 25 19 L 23 19 L 23 18 L 24 18 z M 5 18 L 7 18 L 7 19 L 5 19 z M 8 18 L 9 18 L 9 19 L 10 19 L 10 21 L 8 21 L 8 20 L 7 20 L 7 19 L 8 19 z M 13 18 L 14 18 L 14 19 L 13 19 z M 18 18 L 19 18 L 19 22 L 18 22 L 18 25 L 17 25 L 17 26 L 15 26 L 15 25 L 14 25 L 14 24 L 13 24 L 13 23 L 14 23 L 14 22 L 13 22 L 13 21 L 12 21 L 12 20 L 14 20 L 14 19 L 15 19 L 15 21 L 16 21 L 16 22 L 15 22 L 15 23 L 16 23 L 16 24 L 17 24 L 17 21 L 18 21 L 18 20 L 16 20 L 16 19 L 18 19 z M 34 18 L 35 18 L 35 19 L 34 19 z M 45 18 L 47 18 L 47 19 L 49 19 L 49 20 L 48 20 L 48 21 L 47 21 L 47 20 L 46 20 L 46 19 L 45 19 z M 50 18 L 51 18 L 51 19 L 50 19 z M 63 18 L 64 18 L 64 20 L 62 20 L 62 19 L 63 19 z M 2 19 L 3 19 L 3 20 L 2 20 z M 25 19 L 26 19 L 26 20 L 25 20 z M 36 19 L 38 19 L 38 20 L 36 20 z M 3 20 L 7 20 L 7 21 L 5 21 L 5 22 L 7 22 L 7 23 L 5 23 L 5 24 L 3 24 L 3 23 L 4 23 L 4 21 L 3 21 z M 24 20 L 25 20 L 25 21 L 26 21 L 26 22 L 27 22 L 27 23 L 28 23 L 28 24 L 29 24 L 29 27 L 28 27 L 28 25 L 27 25 L 27 24 L 25 24 L 25 22 L 24 22 z M 28 20 L 29 20 L 29 21 L 28 21 z M 39 20 L 40 20 L 40 21 L 39 21 z M 45 20 L 46 20 L 46 22 L 45 22 z M 53 20 L 54 20 L 54 21 L 53 21 z M 64 20 L 65 20 L 65 21 L 64 21 z M 1 21 L 2 21 L 2 23 L 1 23 z M 10 21 L 12 21 L 12 23 L 10 23 z M 27 21 L 28 21 L 28 22 L 27 22 z M 29 21 L 30 21 L 30 22 L 31 22 L 31 26 L 30 26 L 30 23 L 29 23 z M 23 22 L 24 22 L 24 23 L 23 23 z M 42 22 L 43 22 L 43 23 L 42 23 z M 7 23 L 10 23 L 10 24 L 7 24 z M 21 23 L 22 23 L 22 24 L 24 24 L 24 25 L 23 25 L 23 26 L 22 26 L 22 25 L 20 25 L 20 24 L 21 24 z M 0 24 L 2 24 L 2 25 L 3 25 L 3 26 L 1 26 L 1 25 L 0 25 z M 5 24 L 7 24 L 7 25 L 6 25 L 6 26 L 5 26 z M 10 24 L 12 24 L 12 26 L 13 26 L 13 27 L 14 27 L 14 28 L 16 28 L 16 29 L 14 29 L 14 30 L 13 30 L 13 31 L 14 31 L 14 30 L 16 30 L 16 29 L 17 29 L 17 30 L 18 30 L 18 31 L 17 31 L 17 32 L 16 32 L 16 31 L 15 31 L 15 33 L 14 33 L 14 32 L 12 32 L 12 31 L 11 31 L 11 30 L 12 30 L 12 29 L 11 29 L 11 27 L 10 27 L 10 26 L 11 26 L 11 25 L 10 25 z M 42 24 L 44 24 L 44 25 L 42 25 z M 64 24 L 65 24 L 65 26 L 64 26 L 64 27 L 63 27 L 63 26 L 62 26 L 62 25 L 64 25 z M 7 25 L 10 25 L 10 26 L 9 26 L 9 28 L 8 28 L 8 29 L 9 29 L 9 30 L 7 30 L 7 29 L 6 29 L 6 28 L 7 28 L 7 27 L 6 27 L 6 26 L 7 26 z M 18 25 L 19 25 L 19 26 L 20 26 L 20 27 L 23 27 L 23 28 L 17 28 L 17 27 L 18 27 z M 24 25 L 25 25 L 25 26 L 26 26 L 26 27 L 28 27 L 28 29 L 26 29 L 26 32 L 27 32 L 27 33 L 24 33 L 24 32 L 25 32 L 25 29 L 24 29 z M 41 25 L 42 25 L 42 26 L 41 26 z M 0 26 L 1 26 L 1 27 L 0 27 z M 3 26 L 4 26 L 4 27 L 3 27 z M 14 26 L 15 26 L 15 27 L 14 27 z M 31 26 L 33 26 L 33 27 L 32 27 L 32 28 L 30 28 L 30 27 L 31 27 z M 42 26 L 43 26 L 43 27 L 42 27 z M 60 26 L 61 26 L 61 27 L 60 27 z M 4 27 L 6 27 L 6 28 L 5 28 L 5 29 L 4 29 z M 53 27 L 54 27 L 54 28 L 53 28 z M 0 28 L 2 28 L 2 29 L 1 29 L 1 30 L 2 30 L 2 31 L 0 31 z M 29 28 L 30 28 L 30 29 L 29 29 z M 42 28 L 44 28 L 44 29 L 43 29 L 43 30 L 42 30 z M 3 29 L 4 29 L 4 30 L 3 30 z M 19 29 L 21 29 L 21 30 L 22 30 L 22 31 L 24 31 L 24 32 L 22 32 L 22 33 L 23 33 L 23 34 L 24 34 L 24 35 L 25 35 L 25 36 L 26 36 L 26 35 L 25 35 L 25 34 L 28 34 L 28 35 L 27 35 L 27 36 L 30 36 L 30 37 L 29 37 L 29 38 L 30 38 L 30 39 L 28 39 L 28 37 L 25 37 L 25 38 L 23 38 L 23 37 L 24 37 L 24 36 L 23 36 L 23 37 L 22 37 L 22 36 L 21 36 L 21 37 L 22 37 L 22 40 L 21 40 L 21 38 L 19 38 L 19 39 L 18 39 L 18 37 L 19 37 L 19 36 L 20 36 L 20 34 L 18 34 L 18 32 L 19 32 L 19 31 L 20 31 L 20 30 L 19 30 zM 20 32 L 21 32 L 21 33 L 20 33 z M 21 34 L 22 34 L 22 35 L 21 35 z M 23 29 L 24 29 L 24 30 L 23 30 z M 28 29 L 29 29 L 29 31 L 30 31 L 30 35 L 29 35 L 29 32 L 28 32 L 28 31 L 27 31 L 27 30 L 28 30 z M 44 29 L 45 29 L 45 33 L 44 33 z M 50 29 L 51 29 L 51 30 L 50 30 z M 52 29 L 53 29 L 53 31 L 52 31 L 52 32 L 51 32 L 51 33 L 50 33 L 50 34 L 52 34 L 52 32 L 53 32 L 53 33 L 54 33 L 54 32 L 56 32 L 56 36 L 54 36 L 54 37 L 56 37 L 56 38 L 53 38 L 53 41 L 51 41 L 51 40 L 52 40 L 52 39 L 49 39 L 49 40 L 50 40 L 50 41 L 48 41 L 48 39 L 47 39 L 47 38 L 48 38 L 48 37 L 49 37 L 49 38 L 50 38 L 50 37 L 51 37 L 51 38 L 52 38 L 52 37 L 53 37 L 53 35 L 52 35 L 52 37 L 51 37 L 51 35 L 49 35 L 49 34 L 48 34 L 48 35 L 45 35 L 45 34 L 46 34 L 46 31 L 47 31 L 47 32 L 48 32 L 48 33 L 49 33 L 49 32 L 50 32 L 50 31 L 51 31 L 51 30 L 52 30 z M 3 31 L 4 31 L 4 32 L 3 32 z M 10 31 L 11 31 L 11 32 L 10 32 z M 39 31 L 40 31 L 40 32 L 39 32 z M 41 31 L 43 31 L 43 32 L 41 32 z M 53 31 L 54 31 L 54 32 L 53 32 z M 40 32 L 41 32 L 41 35 L 39 35 L 39 34 L 40 34 z M 64 32 L 65 32 L 65 34 L 64 34 L 64 35 L 65 35 L 65 36 L 64 36 L 64 37 L 65 37 L 65 39 L 63 39 L 63 36 L 62 36 L 62 35 L 63 35 L 63 33 L 64 33 z M 1 33 L 2 33 L 2 34 L 3 34 L 3 35 L 2 35 L 2 36 L 1 36 L 1 37 L 0 37 L 0 35 L 1 35 z M 3 33 L 4 33 L 4 34 L 3 34 z M 12 33 L 14 33 L 14 34 L 15 34 L 15 35 L 14 35 L 14 36 L 12 36 L 12 37 L 10 37 L 10 39 L 9 39 L 9 36 L 11 36 L 11 35 L 13 35 L 13 34 L 12 34 z M 15 33 L 17 33 L 17 34 L 15 34 z M 37 33 L 39 33 L 39 34 L 38 34 L 38 35 L 36 35 L 36 36 L 35 36 L 35 34 L 37 34 z M 42 33 L 43 33 L 43 35 L 45 35 L 45 37 L 44 37 L 44 36 L 43 36 L 43 38 L 44 38 L 44 41 L 42 41 L 42 42 L 41 42 L 41 43 L 40 43 L 40 42 L 39 42 L 39 43 L 37 43 L 37 42 L 38 42 L 38 41 L 37 41 L 37 42 L 36 42 L 36 40 L 38 40 L 38 39 L 36 39 L 36 38 L 35 38 L 35 40 L 33 40 L 33 39 L 34 39 L 34 38 L 33 38 L 33 36 L 34 36 L 34 37 L 37 37 L 37 38 L 39 38 L 39 37 L 40 37 L 40 36 L 41 36 L 41 35 L 42 35 zM 41 38 L 42 38 L 42 39 L 41 39 z M 40 39 L 41 39 L 41 40 L 40 40 z M 39 40 L 40 40 L 40 41 L 39 41 z M 17 34 L 18 34 L 18 35 L 17 35 z M 61 34 L 62 34 L 62 35 L 61 35 z M 4 35 L 6 35 L 6 36 L 7 36 L 7 37 L 4 37 z M 8 35 L 9 35 L 9 36 L 8 36 z M 30 35 L 31 35 L 31 36 L 30 36 z M 38 35 L 39 35 L 39 36 L 38 36 z M 58 35 L 60 35 L 60 36 L 58 36 z M 2 36 L 3 36 L 3 37 L 4 37 L 4 38 L 3 38 L 3 39 L 2 39 L 2 40 L 1 40 L 1 39 L 0 39 L 0 38 L 2 38 z M 16 36 L 18 36 L 18 37 L 16 37 z M 31 36 L 32 36 L 32 37 L 31 37 z M 37 36 L 38 36 L 38 37 L 37 37 z M 47 36 L 48 36 L 48 37 L 47 37 z M 49 36 L 50 36 L 50 37 L 49 37 z M 56 36 L 58 36 L 58 37 L 60 37 L 60 38 L 59 38 L 59 39 L 58 39 L 58 38 L 57 38 L 57 37 L 56 37 z M 61 36 L 62 36 L 62 37 L 61 37 z M 15 37 L 16 37 L 16 38 L 17 38 L 17 39 L 14 39 L 14 38 L 15 38 z M 30 37 L 31 37 L 31 38 L 30 38 z M 45 37 L 46 37 L 46 41 L 45 41 z M 5 38 L 7 38 L 7 39 L 5 39 z M 3 39 L 4 39 L 4 40 L 3 40 z M 7 39 L 8 39 L 8 41 L 6 41 L 6 42 L 5 42 L 5 44 L 7 44 L 7 45 L 6 45 L 6 46 L 7 46 L 7 45 L 8 45 L 8 46 L 10 46 L 10 47 L 11 47 L 11 46 L 12 46 L 12 47 L 13 47 L 13 44 L 14 44 L 14 46 L 15 46 L 15 47 L 14 47 L 14 49 L 11 49 L 11 50 L 10 50 L 10 48 L 9 48 L 9 47 L 8 47 L 8 48 L 7 48 L 7 47 L 5 47 L 5 45 L 4 45 L 4 43 L 3 43 L 3 42 L 4 42 L 4 40 L 7 40 z M 10 39 L 14 39 L 14 41 L 13 41 L 13 40 L 12 40 L 12 41 L 13 41 L 13 44 L 12 44 L 12 43 L 11 43 L 11 40 L 10 40 z M 17 39 L 18 39 L 18 40 L 17 40 z M 19 39 L 20 39 L 20 40 L 21 40 L 21 43 L 19 43 L 19 42 L 20 42 L 20 41 L 18 41 L 18 40 L 19 40 z M 24 39 L 28 39 L 28 41 L 30 41 L 30 42 L 29 42 L 29 43 L 28 43 L 28 42 L 27 42 L 27 43 L 28 43 L 28 44 L 27 44 L 27 45 L 26 45 L 26 42 L 24 42 zM 25 40 L 27 40 L 27 41 L 25 41 z M 54 39 L 55 39 L 55 40 L 58 40 L 58 41 L 54 41 z M 59 39 L 60 39 L 60 41 L 59 41 z M 61 39 L 62 39 L 62 41 L 61 41 z M 0 40 L 1 40 L 1 41 L 0 41 z M 9 40 L 10 40 L 10 42 L 9 42 z M 15 40 L 16 40 L 16 42 L 15 42 L 15 43 L 16 43 L 16 44 L 14 44 L 14 41 L 15 41 z M 30 40 L 32 40 L 32 41 L 34 41 L 34 42 L 35 42 L 35 43 L 34 43 L 34 44 L 33 44 L 33 43 L 32 43 L 32 42 L 31 42 L 31 41 L 30 41 z M 63 40 L 64 40 L 64 41 L 63 41 z M 1 41 L 2 41 L 2 42 L 1 42 z M 17 41 L 18 41 L 18 42 L 17 42 z M 22 41 L 23 41 L 23 43 L 22 43 z M 44 41 L 45 41 L 45 42 L 44 42 z M 46 41 L 47 41 L 47 42 L 46 42 z M 50 41 L 51 41 L 51 43 L 52 43 L 52 44 L 53 44 L 53 43 L 54 43 L 54 46 L 53 46 L 53 45 L 52 45 L 52 46 L 53 46 L 53 47 L 50 47 L 50 46 L 51 46 L 51 44 L 50 44 L 50 43 L 49 43 L 49 42 L 50 42 z M 53 41 L 54 41 L 54 42 L 53 42 z M 60 41 L 61 41 L 61 42 L 62 42 L 62 43 L 63 43 L 63 44 L 62 44 L 62 46 L 61 46 L 61 45 L 57 45 L 57 46 L 55 46 L 55 45 L 56 45 L 56 43 L 58 43 L 58 44 L 61 44 L 61 43 L 59 43 L 59 42 L 60 42 z M 64 41 L 65 41 L 65 42 L 64 42 z M 0 42 L 1 42 L 1 43 L 0 43 z M 6 42 L 8 42 L 8 43 L 6 43 z M 42 42 L 44 42 L 44 44 L 43 44 L 43 43 L 42 43 z M 47 42 L 48 42 L 48 45 L 49 45 L 49 46 L 48 46 L 48 47 L 47 47 L 47 46 L 46 46 L 46 45 L 45 45 L 45 47 L 46 47 L 46 48 L 47 48 L 47 49 L 48 49 L 48 51 L 49 51 L 49 52 L 48 52 L 48 53 L 45 53 L 45 54 L 47 54 L 47 55 L 46 55 L 46 58 L 47 58 L 47 59 L 46 59 L 46 60 L 45 60 L 45 61 L 46 61 L 46 60 L 48 60 L 48 59 L 49 59 L 49 60 L 50 60 L 50 61 L 51 61 L 51 63 L 50 63 L 50 64 L 49 64 L 49 65 L 48 65 L 48 63 L 49 63 L 49 61 L 48 61 L 48 63 L 47 63 L 47 62 L 46 62 L 46 63 L 45 63 L 45 62 L 44 62 L 44 61 L 43 61 L 43 62 L 42 62 L 42 60 L 44 60 L 44 59 L 45 59 L 45 58 L 43 58 L 43 59 L 39 59 L 39 60 L 38 60 L 38 59 L 36 59 L 36 58 L 37 58 L 37 57 L 36 57 L 36 56 L 35 56 L 35 55 L 34 55 L 34 56 L 33 56 L 33 54 L 34 54 L 34 53 L 35 53 L 35 54 L 36 54 L 36 53 L 35 53 L 35 52 L 34 52 L 34 50 L 35 50 L 35 51 L 36 51 L 36 52 L 37 52 L 37 55 L 38 55 L 38 56 L 40 56 L 40 57 L 38 57 L 38 58 L 41 58 L 41 56 L 42 56 L 42 53 L 43 53 L 43 56 L 44 56 L 44 57 L 45 57 L 45 55 L 44 55 L 44 52 L 46 52 L 46 50 L 44 50 L 44 48 L 43 48 L 43 49 L 42 49 L 42 47 L 41 47 L 41 51 L 40 51 L 40 52 L 42 52 L 42 53 L 41 53 L 41 55 L 40 55 L 40 53 L 39 53 L 39 52 L 38 52 L 38 51 L 39 51 L 39 50 L 38 50 L 38 48 L 39 48 L 39 49 L 40 49 L 40 46 L 41 46 L 41 45 L 40 45 L 40 46 L 39 46 L 39 43 L 40 43 L 40 44 L 43 44 L 43 45 L 42 45 L 42 46 L 43 46 L 43 47 L 44 47 L 44 44 L 47 44 z M 52 42 L 53 42 L 53 43 L 52 43 z M 54 42 L 55 42 L 55 43 L 54 43 z M 1 43 L 2 43 L 2 45 L 3 45 L 3 48 L 2 48 L 2 49 L 3 49 L 3 48 L 5 48 L 5 50 L 3 50 L 3 52 L 2 52 L 2 51 L 1 51 L 1 52 L 0 52 L 0 49 L 1 49 L 1 47 L 2 47 L 2 46 L 0 46 L 0 44 L 1 44 z M 8 43 L 11 43 L 11 45 L 9 45 L 9 44 L 8 44 z M 21 43 L 22 43 L 22 44 L 21 44 z M 24 43 L 25 43 L 25 46 L 27 46 L 27 47 L 28 47 L 28 49 L 27 49 L 27 48 L 25 48 L 25 49 L 24 49 L 24 47 L 23 47 L 23 46 L 24 46 L 24 45 L 23 45 L 23 44 L 24 44 z M 29 43 L 31 43 L 31 44 L 33 44 L 33 46 L 30 46 L 30 47 L 29 47 L 29 45 L 30 45 L 30 44 L 29 44 z M 36 43 L 37 43 L 37 44 L 36 44 z M 64 43 L 65 43 L 65 44 L 64 44 z M 19 44 L 20 44 L 20 45 L 19 45 z M 34 44 L 35 44 L 35 45 L 36 45 L 36 46 L 37 46 L 37 47 L 35 47 L 35 46 L 34 46 z M 49 44 L 50 44 L 50 45 L 49 45 z M 15 45 L 16 45 L 16 46 L 15 46 z M 27 45 L 28 45 L 28 46 L 27 46 z M 37 45 L 38 45 L 38 46 L 37 46 z M 63 45 L 65 45 L 65 47 L 63 47 z M 18 46 L 20 46 L 20 47 L 18 47 z M 33 46 L 34 46 L 34 48 L 35 48 L 35 49 L 34 49 L 34 50 L 33 50 z M 38 46 L 39 46 L 39 47 L 38 47 z M 54 46 L 55 46 L 55 48 L 56 48 L 56 47 L 57 47 L 57 48 L 58 48 L 58 46 L 61 46 L 61 47 L 59 47 L 59 50 L 57 50 L 57 49 L 54 49 L 54 48 L 53 48 L 53 47 L 54 47 z M 15 47 L 16 47 L 16 48 L 15 48 z M 21 47 L 22 47 L 22 48 L 23 48 L 23 49 L 20 49 L 20 51 L 19 51 L 19 53 L 20 53 L 20 55 L 19 55 L 19 54 L 17 54 L 17 53 L 18 53 L 18 52 L 16 52 L 16 54 L 15 54 L 15 51 L 18 51 L 18 50 L 16 50 L 16 49 L 18 49 L 18 48 L 21 48 z M 30 47 L 31 47 L 31 48 L 32 48 L 32 52 L 33 52 L 33 53 L 32 53 L 32 54 L 31 54 L 31 56 L 30 56 L 30 55 L 29 55 L 29 56 L 28 56 L 28 55 L 27 55 L 27 53 L 28 53 L 28 52 L 29 52 L 29 51 L 30 51 zM 30 52 L 31 52 L 31 53 L 30 53 z M 29 53 L 30 53 L 30 54 L 29 54 z M 37 47 L 38 47 L 38 48 L 37 48 z M 61 47 L 63 47 L 63 48 L 61 48 z M 6 48 L 7 48 L 7 49 L 6 49 z M 64 48 L 65 48 L 65 50 L 63 50 L 63 49 L 64 49 z M 23 49 L 24 49 L 24 50 L 23 50 z M 26 49 L 27 49 L 27 50 L 26 50 z M 28 49 L 29 49 L 29 50 L 28 50 z M 35 49 L 37 49 L 37 50 L 35 50 z M 49 49 L 50 49 L 50 50 L 49 50 z M 51 49 L 54 49 L 54 51 L 56 51 L 56 50 L 57 50 L 57 52 L 53 52 L 53 51 L 52 51 L 52 50 L 51 50 z M 60 49 L 62 49 L 62 52 L 64 52 L 64 53 L 62 53 L 62 54 L 61 54 L 61 50 L 60 50 z M 5 50 L 8 50 L 8 51 L 11 51 L 11 50 L 14 50 L 14 51 L 12 51 L 12 59 L 11 59 L 11 58 L 10 58 L 10 57 L 11 57 L 11 55 L 10 55 L 10 53 L 9 53 L 9 52 L 7 52 L 7 51 L 5 51 z M 21 50 L 22 50 L 22 51 L 21 51 z M 24 50 L 25 50 L 25 51 L 24 51 z M 37 50 L 38 50 L 38 51 L 37 51 z M 43 50 L 44 50 L 44 52 L 42 52 L 42 51 L 43 51 z M 59 50 L 60 50 L 60 51 L 59 51 z M 4 51 L 5 51 L 5 53 L 4 53 z M 25 51 L 26 51 L 26 52 L 25 52 z M 27 51 L 28 51 L 28 52 L 27 52 z M 58 51 L 59 51 L 59 53 L 57 53 L 57 52 L 58 52 z M 1 52 L 2 52 L 2 54 L 0 54 L 0 53 L 1 53 z M 6 52 L 7 52 L 7 53 L 6 53 z M 13 52 L 14 52 L 14 54 L 13 54 z M 21 52 L 22 52 L 22 53 L 21 53 z M 23 52 L 25 52 L 25 53 L 24 53 L 24 54 L 23 54 z M 51 52 L 52 52 L 52 53 L 54 53 L 54 54 L 52 54 L 52 55 L 51 55 L 51 56 L 50 56 L 50 57 L 48 57 L 48 58 L 47 58 L 47 56 L 48 56 L 48 53 L 49 53 L 49 54 L 51 54 z M 3 53 L 4 53 L 4 56 L 3 56 L 3 55 L 2 55 L 2 54 L 3 54 z M 5 53 L 6 53 L 6 54 L 7 54 L 7 55 L 5 55 z M 25 53 L 26 53 L 26 55 L 25 55 L 25 57 L 24 57 L 24 58 L 25 58 L 25 57 L 26 57 L 26 59 L 25 59 L 25 61 L 24 61 L 24 60 L 22 60 L 22 62 L 23 62 L 23 63 L 24 63 L 24 64 L 23 64 L 23 65 L 21 65 L 21 64 L 22 64 L 22 63 L 21 63 L 21 64 L 20 64 L 20 65 L 19 65 L 19 63 L 20 63 L 20 62 L 19 62 L 19 61 L 21 61 L 21 59 L 23 59 L 23 55 L 24 55 L 24 54 L 25 54 z M 59 53 L 60 53 L 60 55 L 59 55 z M 64 53 L 65 53 L 65 54 L 64 54 z M 14 54 L 15 54 L 15 55 L 14 55 z M 21 54 L 23 54 L 23 55 L 21 55 z M 38 54 L 39 54 L 39 55 L 38 55 z M 55 54 L 57 54 L 57 55 L 58 55 L 58 56 L 56 56 L 56 55 L 55 55 z M 63 54 L 64 54 L 64 55 L 63 55 z M 0 55 L 1 55 L 1 56 L 0 56 z M 13 55 L 14 55 L 14 57 L 17 57 L 17 56 L 20 56 L 20 57 L 19 57 L 19 58 L 20 58 L 20 59 L 18 59 L 18 58 L 16 58 L 16 59 L 15 59 L 15 60 L 14 60 L 14 58 L 13 58 z M 16 55 L 17 55 L 17 56 L 16 56 z M 20 55 L 21 55 L 21 56 L 20 56 z M 26 55 L 27 55 L 27 57 L 26 57 z M 53 55 L 55 55 L 55 56 L 56 56 L 56 57 L 55 57 L 55 58 L 54 58 L 54 60 L 52 60 L 52 61 L 51 61 L 51 60 L 50 60 L 50 59 L 52 59 L 52 58 L 53 58 z M 60 55 L 61 55 L 61 56 L 60 56 z M 64 55 L 65 55 L 65 56 L 64 56 z M 1 56 L 3 56 L 3 57 L 1 57 z M 4 56 L 5 56 L 5 57 L 4 57 z M 6 56 L 8 56 L 8 57 L 6 57 z M 61 56 L 62 56 L 62 57 L 63 57 L 63 59 L 64 59 L 64 60 L 62 60 L 62 59 L 61 59 z M 8 57 L 9 57 L 9 58 L 10 58 L 10 59 L 8 59 z M 21 57 L 22 57 L 22 58 L 21 58 z M 35 57 L 36 57 L 36 58 L 35 58 z M 51 57 L 52 57 L 52 58 L 51 58 z M 28 58 L 30 58 L 30 59 L 29 59 L 29 60 L 28 60 L 28 61 L 27 61 L 27 62 L 28 62 L 28 61 L 29 61 L 29 62 L 30 62 L 30 63 L 29 63 L 29 64 L 28 64 L 28 63 L 26 63 L 26 64 L 25 64 L 25 62 L 26 62 L 26 59 L 28 59 z M 64 58 L 65 58 L 65 59 L 64 59 z M 10 59 L 11 59 L 11 60 L 10 60 z M 16 59 L 17 59 L 17 60 L 16 60 z M 8 60 L 10 60 L 10 61 L 9 61 L 9 64 L 10 64 L 10 61 L 11 61 L 11 60 L 14 60 L 14 62 L 13 62 L 13 61 L 12 61 L 12 64 L 11 64 L 11 65 L 8 65 z M 15 60 L 16 60 L 16 61 L 15 61 z M 17 60 L 18 60 L 18 61 L 17 61 z M 29 60 L 30 60 L 30 61 L 29 61 z M 40 60 L 41 60 L 41 64 L 42 64 L 42 65 L 32 65 L 32 63 L 33 63 L 33 64 L 35 64 L 35 63 L 36 63 L 36 62 L 37 62 L 37 64 L 40 64 z M 64 60 L 65 60 L 65 62 L 64 62 z M 16 61 L 17 61 L 17 62 L 18 62 L 18 63 L 17 63 L 17 64 L 18 64 L 18 65 L 16 65 L 16 63 L 14 63 L 14 62 L 16 62 z M 23 61 L 24 61 L 24 62 L 23 62 z M 31 61 L 32 61 L 32 63 L 31 63 z M 34 61 L 36 61 L 36 62 L 34 62 z M 37 61 L 39 61 L 39 63 L 38 63 L 38 62 L 37 62 z M 53 61 L 57 61 L 57 62 L 55 62 L 55 63 L 56 63 L 56 64 L 58 64 L 58 65 L 52 65 L 52 62 L 53 62 L 53 64 L 54 64 L 54 62 L 53 62 z M 59 61 L 60 61 L 60 62 L 61 62 L 61 63 L 60 63 L 60 64 L 61 64 L 61 63 L 62 63 L 62 65 L 59 65 L 59 64 L 58 64 L 58 62 L 59 62 z M 33 62 L 34 62 L 34 63 L 33 63 z M 43 62 L 44 62 L 44 64 L 43 64 z M 62 62 L 64 62 L 64 63 L 65 63 L 65 64 L 64 64 L 64 65 L 63 65 L 63 63 L 62 63 z M 13 63 L 14 63 L 14 64 L 13 64 z M 30 63 L 31 63 L 31 64 L 30 64 z M 46 63 L 47 63 L 47 65 L 46 65 z M 14 64 L 15 64 L 15 65 L 14 65 z M 24 64 L 25 64 L 25 65 L 24 65 z M 26 64 L 28 64 L 28 65 L 26 65 z M 44 64 L 45 64 L 45 65 L 44 65 z"></path><path id="qr squares" d="M0,0h7h0v0v7v0h0h-7h0v0v-7v0h0zM1,1h5h0v0v5v0h0h-5h0v0v-5v0h0zM2,2h3h0v0v3v0h0h-3h0v0v-3v0h0z M58,0h7h0v0v7v0h0h-7h0v0v-7v0h0zM59,1h5h0v0v5v0h0h-5h0v0v-5v0h0zM60,2h3h0v0v3v0h0h-3h0v0v-3v0h0z M0,58h7h0v0v7v0h0h-7h0v0v-7v0h0zM1,59h5h0v0v5v0h0h-5h0v0v-5v0h0zM2,60h3h0v0v3v0h0h-3h0v0v-3v0h0zM4,30h5h0v0v5v0h0h-5h0v0v-5v0h0zM5,31h3h0v0v3v0h0h-3h0v0v-3v0h0zM6,32h1h0v0v1v0h0h-1h0v0v-1v0h0z M30,4h5h0v0v5v0h0h-5h0v0v-5v0h0zM31,5h3h0v0v3v0h0h-3h0v0v-3v0h0zM32,6h1h0v0v1v0h0h-1h0v0v-1v0h0z M30,30h5h0v0v5v0h0h-5h0v0v-5v0h0zM31,31h3h0v0v3v0h0h-3h0v0v-3v0h0zM32,32h1h0v0v1v0h0h-1h0v0v-1v0h0z M30,56h5h0v0v5v0h0h-5h0v0v-5v0h0zM31,57h3h0v0v3v0h0h-3h0v0v-3v0h0zM32,58h1h0v0v1v0h0h-1h0v0v-1v0h0z M56,30h5h0v0v5v0h0h-5h0v0v-5v0h0zM57,31h3h0v0v3v0h0h-3h0v0v-3v0h0zM58,32h1h0v0v1v0h0h-1h0v0v-1v0h0z M56,56h5h0v0v5v0h0h-5h0v0v-5v0h0zM57,57h3h0v0v3v0h0h-3h0v0v-3v0h0zM58,58h1h0v0v1v0h0h-1h0v0v-1v0h0z" fill-rule="evenodd" fill-opacity="1" fill="rgb(0, 0, 0)"></path></svg>